<svg xmlns="http://www.w3.org/2000/svg" viewBox="0 0 512 512" role="img" aria-label="MBTA Tracker Blue Line icon">
  <rect width="512" height="512" rx="112" fill="#04235D"/>

  <path d="M72 112H440" stroke="#2E68D8" stroke-width="12" stroke-linecap="round" opacity="0.34"/>
  <path d="M72 256H440" stroke="#2E68D8" stroke-width="12" stroke-linecap="round" opacity="0.24"/>
  <path d="M72 400H440" stroke="#2E68D8" stroke-width="12" stroke-linecap="round" opacity="0.34"/>
  <path d="M112 72V440" stroke="#2E68D8" stroke-width="12" stroke-linecap="round" opacity="0.24"/>
  <path d="M400 72V440" stroke="#2E68D8" stroke-width="12" stroke-linecap="round" opacity="0.24"/>

  <path d="M256 24V488" stroke="#6FB7FF" stroke-width="78" stroke-linecap="round"/>
  <path d="M256 24V488" stroke="#003DA5" stroke-width="54" stroke-linecap="round"/>

  <circle cx="256" cy="54" r="24" fill="#F8FAFC"/>
  <circle cx="256" cy="458" r="24" fill="#F8FAFC"/>

  <circle cx="256" cy="256" r="164" fill="#04235D"/>
  <circle cx="256" cy="256" r="146" fill="#F8FAFC"/>
  <circle cx="256" cy="256" r="110" fill="#003DA5"/>

  <g transform="translate(256 266)">
    <rect x="-54" y="-70" width="108" height="122" rx="32" fill="#F8FAFC"/>
    <rect x="-36" y="-50" width="72" height="40" rx="11" fill="#003DA5"/>
    <circle cx="-26" cy="28" r="11" fill="#003DA5"/>
    <circle cx="26" cy="28" r="11" fill="#003DA5"/>
    <path d="M-36 62H36" stroke="#003DA5" stroke-width="12" stroke-linecap="round"/>
  </g>

  <circle cx="256" cy="256" r="178" stroke="#F8FAFC" stroke-width="11" opacity="0.15"/>
</svg>
